<?xml version="1.0" encoding="UTF-8" standalone="no"?><!DOCTYPE svg PUBLIC "-//W3C//DTD SVG 1.1//EN" "http://www.w3.org/Graphics/SVG/1.1/DTD/svg11.dtd"><svg width="100%" height="100%" viewBox="0 0 500 500" version="1.1" xmlns="http://www.w3.org/2000/svg" xmlns:xlink="http://www.w3.org/1999/xlink" xml:space="preserve" style="fill-rule:evenodd;clip-rule:evenodd;stroke-linejoin:round;stroke-miterlimit:1.41421;"><g><path d="M0,0l501.3,0l0,500l-501.3,0l0,-500Z" style="fill:#ecc561;fill-rule:nonzero;"/><path d="M446,165.2l0,172.1l-41.7,5.4l0,-109.1l-40.8,76.9l-0.9,0l-43,-77.2l0,119l-49.1,4.4l0,-215.2l52.6,7.4l40.3,76.6l38.3,-65.9l44.3,5.6ZM445,115.7l-191,-38.5l0,27.2l191,32.4l0,-21.1Z" style="fill:#fff;fill-rule:nonzero;"/><path d="M59.9,164.9l0,170.8l41.7,7.1l0,-108.1l40.8,76.9l0.9,0l43,-77.2l0,116.2l49.2,7.3l0,-216.7l-52.7,7.4l-40.3,78.1l-38.3,-68.8l-44.3,7ZM59,115.7l195,-38.5l0,27.2l-195,33.7l0,-22.4Z" style="fill:#000;fill-opacity:0.25;fill-rule:nonzero;"/><path d="M445,380.6l-191,38.4l0,-28.5l191,-31l0,21.1Z" style="fill:#fff;fill-rule:nonzero;"/><path d="M59,380.6l195,38.4l0,-28.5l-195,-32.4l0,22.5Z" style="fill:#000;fill-opacity:0.25;fill-rule:nonzero;"/></g></svg>